<?xml version="1.0" standalone="no"?>
<!DOCTYPE svg PUBLIC "-//W3C//DTD SVG 20010904//EN"
 "http://www.w3.org/TR/2001/REC-SVG-20010904/DTD/svg10.dtd">
<svg version="1.0" xmlns="http://www.w3.org/2000/svg"
 width="512.000000pt" height="512.000000pt" viewBox="0 0 512.000000 512.000000"
 preserveAspectRatio="xMidYMid meet">

<g transform="translate(0.000000,512.000000) scale(0.100000,-0.100000)"
fill="#aldkof" stroke="none">
<path d="M2160 4227 c-47 -14 -1531 -1487 -1573 -1561 -38 -67 -38 -145 0
-212 19 -33 272 -291 783 -800 804 -800 775 -774 870 -774 124 0 240 116 240
240 0 93 11 81 -564 657 l-541 543 1491 0 c1684 0 1549 -7 1627 80 90 100 90
220 0 320 -78 87 57 80 -1627 80 l-1491 0 541 543 c464 465 542 548 552 583
27 95 8 169 -63 239 -70 70 -151 91 -245 62z"/>
</g>
</svg>
